<svg width="707" height="278" viewBox="0 0 707 278" fill="none" xmlns="http://www.w3.org/2000/svg">
<path d="M85.1259 47.6531L88.2118 54.6277L90.2934 55.0853C90.2568 53.8011 88.7831 51.4997 85.1259 47.6531Z" fill="white"/>
<path d="M68.0781 49.9286L68.5644 54.1705L62.0711 57.9022L57.7642 72.8689L57.8265 74.1503L52.8915 74.5651L57.9709 77.128L59.1053 100.503L57.6383 101.185L59.1835 102.104L60.1536 122.057L66.6443 150.068L50.2478 150.411L41.1053 144.369L41.1232 144.123L39.4866 144.255C39.1443 144.283 38.8444 144.028 38.8161 143.686C38.7956 143.434 38.9281 143.195 39.1527 143.08L31.1168 137.771L31.3951 128.971L35.0221 127.763L31.4388 127.498L31.7184 118.618L33.8082 118.842L34.3105 115.747L33.139 117.671H31.7476L31.802 115.908L26.313 101.726C26.3144 101.742 26.3154 101.763 26.3155 101.779L27.1756 120.992C27.1961 121.503 26.7975 121.934 26.2864 121.953C25.7785 121.973 25.3498 121.579 25.327 121.071L24.4775 101.857C24.457 101.349 24.851 100.921 25.3588 100.898C25.663 100.888 25.9535 101.025 26.1353 101.269L23.6042 94.7279L13.3553 93.7062L6.27614 109.044L4.01664 109.471L2.25949 106.541L2.59343 109.888L5.14569 111.492L3.10626 115.908L2.8293 133.317L0.9197 134.408L2.42642 135.329L2.7922 135.512L2.57629 149.066L1.08811 148.383L0.0835806 147.212L0 149.471L2.57214 149.332L2.42243 158.606L15.0303 171.407L11.8816 173.405L10.4597 175.163L16.6311 173.028L24.9678 181.493L27.1862 181.6L27.7812 187.296L28.4849 181.664L53.3215 182.859C53.8723 182.787 54.4229 182.717 54.974 182.647L55.8168 185.874L58.8289 186.962L57.0718 185.121L57.5475 182.331C63.6295 181.6 69.707 180.927 75.6681 179.485C76.165 179.364 76.6649 179.671 76.7839 180.168C76.9049 180.665 76.5987 181.166 76.1014 181.285L72.3883 182.181C72.8108 183.887 73.023 186.85 73.076 190.691L69.7074 192.193L73.0893 192.723C73.0895 197.722 72.8675 203.916 72.5115 210.637L68.9123 211.104L72.4479 211.829C72.2197 215.997 71.9434 220.349 71.6382 224.73L69.6239 225.791L71.5335 226.215C71.3386 228.955 71.134 231.701 70.9239 234.412L70.0427 234.705L70.8351 235.543V235.546C69.2561 255.725 67.4268 273.727 67.4268 273.727L102.852 274.407C102.852 274.407 103.126 271.766 103.579 267.218C102.216 263.635 101.158 259.203 101.139 258.653C101.114 257.965 101.216 256.504 101.216 256.504C101.216 256.504 101.569 251.586 102.495 248.575C103.047 246.783 103.354 244.286 103.005 242.974C102.684 241.765 101.768 240.957 101.768 240.957C101.768 240.957 100.976 240.31 100.563 240.008C98.6872 238.635 96.2464 237.817 94.7906 236.092C92.9719 233.936 92.3706 231.349 92.3668 228.548C92.3617 225.583 93.1423 223.12 94.5269 220.488C94.5774 220.395 94.6261 220.3 94.6767 220.208C94.7069 220.211 96.5147 217.394 96.5147 217.394C97.3511 216.315 98.2951 215.319 99.336 214.449C101.271 212.832 106.01 210.838 106.01 210.838L101.815 195.683L100.056 189.323L96.0641 174.908C94.8084 172.104 95.1688 171.523 94.1081 170.367L93.7477 170.01C93.7477 170.01 92.3795 169.433 91.7056 169.121C91.0972 168.84 89.9968 168.723 89.9007 168.235L88.5172 161.192C88.382 160.505 89.8752 160.3 90.1419 159.594C90.4293 158.834 89.9603 157.168 89.9603 157.168C89.9088 156.475 90.0141 155.61 90.8627 155.452L100.061 153.737C100.466 153.662 101.02 153.94 101.144 154.328L104.392 164.505C104.392 164.505 104.563 165.889 104.331 166.52C104.165 166.969 103.428 167.641 103.428 167.641L106.595 176.59C106.791 176.75 106.92 176.987 106.933 177.259L106.951 177.597L110.419 187.395C110.933 179.621 111.355 172.189 111.622 165.546L116.324 165.577L111.724 162.826C112.242 148.058 111.911 137.787 110.03 137.425L118.911 139.133L144.871 126.494L150.049 116.413L152.56 117.92L154.066 117.418L152.979 116.832L151.106 114.355L153.468 109.754L156.912 110.554L154.647 107.459L157.853 101.216L151.333 74.8579L155.07 74.2364L156.41 72.1439L153.815 73.4824L150.978 73.4174L149.995 69.4472L139.981 69.8951L139.003 63.9424C139.003 63.9424 137.778 68.2294 137.745 69.9945L134.622 70.1323L127.959 84.6696L125.864 84.7796L125.362 83.0224L124.357 84.7796L127.054 86.7157L119.935 110.782L108.662 116.93L108.291 106.07L112.81 104.864L108.23 104.364L106.954 67.0565L96.9831 56.5571L90.2936 55.0848C90.4175 59.4498 73.9277 52.0577 70.0434 53.586L68.0781 49.9286ZM86.8149 58.9862C87.2395 59.0019 87.6028 59.3083 87.6855 59.7323C87.6855 59.7323 90.1527 70.1862 91.1377 82.2671C92.1647 94.8653 90.7123 119.808 90.7123 119.808C90.682 120.318 90.2442 120.707 89.7343 120.676C89.2231 120.646 88.8313 120.209 88.8623 119.698C88.8623 119.698 90.299 94.6819 89.2996 82.4248C88.3352 70.5957 85.8661 60.0808 85.8661 60.0808C85.7725 59.5778 86.1048 59.095 86.6082 59.0035C86.6487 58.9932 86.6882 58.9876 86.7287 58.9876C86.7574 58.986 86.7867 58.9852 86.8149 58.9862ZM79.1487 60.4413C79.1692 60.4407 79.1907 60.44 79.211 60.4413C79.674 60.4567 80.0531 60.8141 80.0975 61.2748L80.5415 64.9204C80.592 65.4281 80.2183 65.8791 79.7106 65.9276C79.2039 65.9781 78.7532 65.606 78.7034 65.0993L78.2555 61.4431C78.2099 60.9386 78.5835 60.4925 79.0878 60.4439C79.1083 60.4427 79.1279 60.4418 79.1487 60.4413ZM73.8917 64.4261C73.9122 64.4257 73.9317 64.4249 73.9514 64.4261C74.3705 64.4466 74.7225 64.7485 74.8088 65.1589L76.0824 71.1369C76.1906 71.6333 75.8772 72.1246 75.3813 72.2355C74.8813 72.3432 74.3901 72.0241 74.2841 71.5238L73 65.5433C72.8938 65.0443 73.211 64.5534 73.7103 64.4473C73.7695 64.4371 73.8309 64.4261 73.8917 64.4261ZM66.346 64.6527C66.7733 64.6689 67.1383 64.9813 67.2167 65.4094L73.8705 101.996C73.9574 102.495 73.6253 102.972 73.127 103.063C72.625 103.157 72.1425 102.825 72.0497 102.322L65.3999 65.7474C65.3063 65.2454 65.6374 64.7628 66.1394 64.67C66.1799 64.6597 66.2194 64.6541 66.2599 64.6541C66.2888 64.6525 66.3176 64.6517 66.346 64.6527ZM96.9831 66.569C97.4497 66.5843 97.8408 66.9455 97.8775 67.4211L98.4818 75.2688C98.5275 75.7801 98.1424 76.229 97.6311 76.268C97.1237 76.3034 96.6816 75.9259 96.6425 75.4186L96.0395 67.5602C96.0041 67.0528 96.3816 66.6108 96.889 66.5716C96.9192 66.5694 96.9523 66.569 96.9831 66.569ZM135.452 71.2866C135.482 71.285 135.514 71.2851 135.546 71.2866C136.053 71.3123 136.445 71.7392 136.425 72.2461L135.823 84.6882C135.797 85.1993 135.364 85.5946 134.853 85.5682C134.343 85.5425 133.949 85.1096 133.974 84.5994L134.579 72.1573C134.609 71.6821 134.987 71.3106 135.452 71.2866ZM146.231 74.1808C146.693 74.1706 147.089 74.5066 147.16 74.9627C147.16 74.9627 147.727 78.7771 148.148 83.5221C148.569 88.2671 148.864 93.9278 148.248 97.8354C147.606 101.909 145.502 107.437 143.561 112.018C141.619 116.598 139.824 120.202 139.824 120.202C139.596 120.656 139.046 120.842 138.59 120.618C138.134 120.391 137.948 119.838 138.174 119.382C138.174 119.382 139.943 115.821 141.862 111.295C143.78 106.77 145.833 101.241 146.416 97.5372C146.973 93.9999 146.726 88.3656 146.31 83.6798C145.894 78.9939 145.331 75.2397 145.331 75.2397C145.257 74.7346 145.606 74.2657 146.111 74.1914C146.152 74.1863 146.19 74.1808 146.231 74.1808ZM141.14 74.5453C141.18 74.5436 141.219 74.5433 141.258 74.5466C141.766 74.5922 142.143 75.0371 142.099 75.5458L141.615 80.8624C141.565 81.3712 141.115 81.7444 140.607 81.6946C140.104 81.6441 139.734 81.199 139.777 80.6955L140.261 75.3788C140.307 74.9208 140.68 74.5655 141.14 74.5453ZM82.2231 77.7535C82.6837 77.7279 83.0916 78.0485 83.1799 78.5009L84.464 85.2513C84.5576 85.7533 84.2268 86.2359 83.7246 86.3287C83.2261 86.4228 82.745 86.0964 82.6472 85.5986L81.3631 78.8467C81.2695 78.3447 81.6003 77.8621 82.1025 77.7694C82.1431 77.7642 82.1826 77.7587 82.2231 77.7535ZM96.0991 79.4617C96.6047 79.4591 97.0193 79.8624 97.0281 80.3681L97.1951 95.3136C97.2053 95.8234 96.797 96.2443 96.2873 96.2531C95.7766 96.2583 95.3601 95.8453 95.357 95.3348L95.178 80.3893C95.1755 79.8785 95.5885 79.4634 96.0991 79.4617ZM64.0667 84.5796C64.5313 84.5744 64.9284 84.9121 64.9943 85.372L65.596 89.4721C65.6704 89.9772 65.3219 90.4461 64.8169 90.5204C64.3113 90.5948 63.8415 90.2446 63.7686 89.7385L63.1643 85.6384C63.09 85.1328 63.44 84.6617 63.9461 84.5888C63.9867 84.5837 64.0262 84.5796 64.0667 84.5796ZM101.931 85.9551C102.441 85.9654 102.846 86.3836 102.838 86.8933L102.66 96.5407C102.65 97.0505 102.232 97.4569 101.722 97.4484C101.215 97.4331 100.814 97.0156 100.822 96.5089L100.992 86.8536C101.007 86.3469 101.425 85.9465 101.931 85.9551ZM134.874 89.7571C134.996 89.7545 135.116 89.7771 135.229 89.8194C135.703 90.0055 135.938 90.5402 135.753 91.0147L132.502 99.4641C132.32 99.9423 131.784 100.182 131.307 99.9981C130.827 99.8176 130.588 99.2809 130.771 98.8028L134.034 90.3534C134.167 90.0027 134.499 89.7669 134.874 89.7571ZM140.086 90.1228C140.208 90.123 140.327 90.1482 140.439 90.1931C140.911 90.3864 141.138 90.9267 140.943 91.399L139.251 95.5017C139.057 95.9734 138.518 96.1986 138.047 96.004C137.574 95.8106 137.347 95.2717 137.542 94.7994L139.234 90.6874C139.378 90.3447 139.714 90.1222 140.086 90.1228ZM80.9072 90.9855C81.417 90.9881 81.8283 91.4046 81.8256 91.9145V95.837C81.8307 96.3478 81.4178 96.7655 80.9072 96.7686C80.3913 96.7738 79.9728 96.3531 79.977 95.837V91.9145C79.9744 91.3996 80.3922 90.9814 80.9072 90.9855ZM13.3082 96.1537C13.82 96.1486 14.2381 96.5631 14.2398 97.0748L14.4782 122.198C14.4834 122.705 14.0756 123.122 13.5678 123.129C13.053 123.139 12.6299 122.723 12.6283 122.208L12.3911 97.092C12.3808 96.5782 12.7941 96.1568 13.3082 96.1537ZM153.005 97.1264C153.126 97.1249 153.245 97.1464 153.358 97.1914C153.834 97.3816 154.064 97.9228 153.871 98.3973L151.697 103.717C151.503 104.188 150.963 104.413 150.491 104.219C150.019 104.025 149.792 103.485 149.987 103.013L152.16 97.6962C152.302 97.3542 152.635 97.1299 153.005 97.1264ZM65.1468 98.926C65.5663 98.9414 65.9219 99.242 66.0121 99.6522L67.1187 104.606C67.232 105.105 66.9176 105.601 66.4176 105.712C65.9212 105.82 65.4299 105.507 65.319 105.011L64.2019 100.058C64.0885 99.5577 64.4045 99.0606 64.9056 98.9511C64.9846 98.9306 65.0655 98.926 65.1468 98.926ZM129.225 101.957C129.387 101.958 129.546 102.003 129.686 102.085C130.129 102.341 130.279 102.909 130.02 103.351L128.33 106.245C128.071 106.685 127.504 106.832 127.065 106.572C126.628 106.316 126.479 105.757 126.731 105.317L128.419 102.411C128.587 102.126 128.894 101.953 129.225 101.957ZM21.4024 102.006C21.4429 102.003 21.4829 102.003 21.523 102.006C22.0341 102.036 22.4246 102.474 22.3936 102.985L22.049 108.785C22.0187 109.298 21.5805 109.689 21.0684 109.656C20.5624 109.621 20.1784 109.184 20.2096 108.678L20.5449 102.875C20.5706 102.411 20.9389 102.038 21.4024 102.006ZM83.2899 105.594C83.7955 105.592 84.21 105.997 84.2189 106.502L84.3076 113.678C84.3127 114.186 83.905 114.601 83.3972 114.608C82.8864 114.619 82.4663 114.21 82.4589 113.699L82.3702 106.523C82.3676 106.013 82.7793 105.596 83.2899 105.594ZM136.446 106.18C136.608 106.178 136.767 106.216 136.908 106.295H136.911C137.358 106.541 137.521 107.103 137.274 107.55L135.102 111.534C134.857 111.982 134.293 112.145 133.846 111.9C133.404 111.655 133.24 111.1 133.48 110.655L135.656 106.661C135.814 106.371 136.116 106.188 136.446 106.18ZM99.6135 109.004C99.6541 109.002 99.6961 109.002 99.7369 109.004C100.247 109.03 100.64 109.463 100.616 109.973L100.103 120.142C100.072 120.65 99.6408 121.039 99.1326 121.013C98.6257 120.983 98.2381 120.55 98.2646 120.043L98.7669 109.883C98.7874 109.418 99.1504 109.042 99.6135 109.004ZM74.1209 114.044C74.539 114.064 74.8909 114.367 74.977 114.777L77.1993 125.281C77.3071 125.781 76.9881 126.274 76.4877 126.38C75.9888 126.486 75.4979 126.168 75.3918 125.668L73.1668 115.161C73.0607 114.662 73.3791 114.171 73.8784 114.065C73.9584 114.044 74.0392 114.041 74.121 114.046L74.1209 114.044ZM122.818 117.55C123.104 117.545 123.377 117.675 123.556 117.899C123.871 118.297 123.805 118.876 123.408 119.193L117.556 123.847C117.158 124.163 116.579 124.098 116.262 123.702C115.946 123.303 116.012 122.724 116.41 122.407L122.261 117.749C122.42 117.624 122.615 117.554 122.818 117.55ZM7.33021 119.086C7.83632 119.06 8.26793 119.448 8.29765 119.954L8.81314 129.266C8.83878 129.773 8.44954 130.207 7.94251 130.235C7.4315 130.265 6.99279 129.874 6.9645 129.363L6.45958 120.053C6.43393 119.546 6.82323 119.114 7.33021 119.086ZM67.882 119.344C67.9025 119.344 67.922 119.346 67.9417 119.347C68.3577 119.357 68.7163 119.639 68.8177 120.043L70.0156 124.819C70.1441 125.316 69.8423 125.822 69.3438 125.945C68.8498 126.067 68.3503 125.767 68.2266 125.273L67.0299 120.488C66.9084 119.994 67.2085 119.495 67.7019 119.371C67.7611 119.356 67.8212 119.344 67.882 119.344ZM104.428 124.637C104.468 124.636 104.508 124.637 104.548 124.64C105.056 124.68 105.435 125.121 105.398 125.628L104.886 132.033C104.846 132.545 104.398 132.927 103.887 132.884C103.38 132.838 103.004 132.392 103.047 131.885L103.552 125.48C103.592 125.02 103.966 124.659 104.428 124.637ZM128.762 125.493C129.008 125.491 129.243 125.585 129.418 125.757C129.781 126.115 129.787 126.7 129.429 127.062L126.524 130.007C126.166 130.37 125.582 130.377 125.218 130.017C124.856 129.659 124.85 129.075 125.208 128.712L128.114 125.767C128.286 125.594 128.518 125.496 128.762 125.493ZM18.7348 126.518C19.2415 126.519 19.6527 126.93 19.6558 127.436V132.734C19.6541 133.242 19.2424 133.654 18.7348 133.655C18.2281 133.653 17.8194 133.241 17.8178 132.734V127.436C17.8203 126.93 18.2293 126.521 18.7348 126.518ZM87.5504 129.669C87.5709 129.668 87.5899 129.668 87.6101 129.669C88.0762 129.69 88.4534 130.057 88.4888 130.522L88.8346 134.79C88.8803 135.301 88.4952 135.75 87.9838 135.789C87.4725 135.834 87.0251 135.451 86.986 134.939L86.6507 130.668C86.6102 130.162 86.9831 129.716 87.4895 129.672C87.5101 129.67 87.5304 129.669 87.5504 129.669ZM69.1688 137.021C69.5427 137.006 69.8889 137.219 70.0446 137.559L72.267 142.421C72.4811 142.885 72.2773 143.435 71.8125 143.647C71.3489 143.859 70.8004 143.657 70.588 143.195L68.363 138.322C68.1561 137.861 68.3604 137.32 68.8175 137.107C68.9278 137.057 69.0474 137.034 69.1688 137.029V137.021ZM93.7774 137.698C94.2872 137.683 94.7105 138.088 94.7236 138.598L94.982 148.163C94.9974 148.674 94.5932 149.1 94.0822 149.113C93.5714 149.129 93.1464 148.725 93.1334 148.214L92.8777 138.645C92.8623 138.135 93.2675 137.711 93.7774 137.698ZM79.04 138.046C79.454 138.051 79.8129 138.333 79.9186 138.733L82.0535 147.196C82.1761 147.686 81.8799 148.185 81.3909 148.313C80.897 148.442 80.3927 148.146 80.2645 147.652L78.131 139.189C78.0094 138.695 78.3094 138.196 78.8028 138.072C78.8808 138.051 78.96 138.046 79.04 138.046ZM27.1537 140.687C27.5272 140.671 27.8716 140.886 28.027 141.226L30.7649 147.204C30.979 147.668 30.7751 148.219 30.3103 148.431C29.8467 148.643 29.2982 148.441 29.0858 147.975L26.348 141.997C26.1339 141.533 26.3377 140.983 26.8025 140.77C26.9128 140.72 27.0328 140.694 27.1537 140.689V140.687ZM41.2961 141.846L40.4506 142.205L41.2192 142.865L41.2961 141.846ZM39.1002 141.979L39.0989 141.981C39.0886 141.999 39.0689 142.073 39.034 142.24L39.1148 142.232C39.1071 142.139 39.1131 142.004 39.1045 141.98L39.1032 141.978L39.1002 141.979ZM39.1148 142.232C39.1174 142.272 39.1233 142.305 39.1362 142.318C39.1366 142.318 39.1388 142.32 39.1413 142.321L39.144 142.323L39.1466 142.325H39.1492L40.4837 142.925L39.8132 142.175L39.1148 142.232ZM10.2571 142.309C10.2776 142.308 10.2979 142.309 10.3181 142.309C10.7812 142.324 11.1602 142.681 11.2047 143.142L11.9653 151.002C12.0159 151.509 11.6438 151.958 11.1371 152.008C10.6304 152.058 10.1798 151.686 10.1299 151.18L9.36666 143.321C9.31615 142.814 9.68982 142.363 10.1975 142.314C10.2181 142.312 10.2371 142.309 10.2571 142.309ZM42.9852 142.762C42.9288 142.761 42.8526 142.827 42.8647 142.975C42.8664 142.998 42.8673 143.023 42.8698 143.051C43.0978 142.872 43.0575 142.763 42.9852 142.762ZM42.8698 143.051C42.8647 143.056 42.8583 143.059 42.8506 143.064L42.8634 143.33C42.8685 143.224 42.8724 143.128 42.8698 143.051ZM42.8634 143.33C42.8378 143.781 42.7331 144.404 42.4738 144.425L42.5335 144.812L42.8992 144.124L42.8634 143.33ZM42.8557 146.332C43.171 146.345 43.4325 146.593 43.4533 146.915C43.4738 147.258 43.2157 147.554 42.8729 147.576L40.1549 147.755C39.8117 147.778 39.5152 147.518 39.4924 147.175C39.4693 146.831 39.7303 146.534 40.0741 146.512L42.792 146.333C42.8125 146.332 42.8346 146.331 42.8557 146.332ZM21.1823 148.287C21.5558 148.271 21.9015 148.486 22.0569 148.826L24.6953 154.64C24.9079 155.103 24.7056 155.649 24.2421 155.863C23.7755 156.076 23.2257 155.868 23.0163 155.4L20.3673 149.597C20.1547 149.13 20.3621 148.579 20.8324 148.37C20.9427 148.32 21.0609 148.291 21.1823 148.287ZM105.78 149.251C106.289 149.236 106.714 149.639 106.728 150.149L106.985 158.856C107.001 159.367 106.597 159.792 106.086 159.805C105.579 159.821 105.154 159.423 105.135 158.916L104.88 150.198C104.864 149.688 105.27 149.264 105.78 149.251ZM43.1313 149.641C43.4745 149.621 43.7704 149.88 43.7926 150.223C43.8131 150.565 43.5548 150.861 43.2121 150.884L40.4942 151.063C40.151 151.086 39.8544 150.826 39.8316 150.483C39.8085 150.139 40.0696 149.842 40.4133 149.82L43.1313 149.641ZM36.406 151.535C36.6514 151.532 36.8869 151.629 37.062 151.801L41.2416 155.894C41.6126 156.25 41.6236 156.839 41.2621 157.206C40.9034 157.576 40.3108 157.584 39.9462 157.217L35.7679 153.114C35.4051 152.756 35.3988 152.172 35.7576 151.809C35.9289 151.635 36.1628 151.538 36.406 151.535ZM43.407 153.456C43.7224 153.469 43.9838 153.717 44.0046 154.039C44.0251 154.382 43.7669 154.678 43.4242 154.701L40.7063 154.88C40.3631 154.903 40.0665 154.642 40.0437 154.299C40.0206 153.955 40.2816 153.659 40.6254 153.637L43.3434 153.458C43.3639 153.456 43.386 153.455 43.407 153.456ZM52.075 154.009C52.2784 153.999 52.481 154.057 52.6488 154.173L56.4031 156.733C56.8271 157.019 56.9388 157.594 56.6521 158.017C56.3631 158.439 55.7861 158.547 55.3653 158.256L51.6097 155.696C51.1866 155.409 51.0781 154.834 51.3646 154.411C51.5264 154.175 51.7893 154.025 52.075 154.009ZM69.2044 154.861C69.367 154.86 69.5269 154.902 69.6681 154.984L74.8775 157.979C75.3152 158.234 75.4639 158.794 75.2141 159.234C74.9625 159.675 74.402 159.831 73.9591 159.581L68.7498 156.585C68.3091 156.333 68.1539 155.771 68.4039 155.329C68.5673 155.04 68.8728 154.862 69.2044 154.861ZM80.7799 155.808C80.8004 155.808 80.8193 155.808 80.8396 155.808C81.3001 155.819 81.6832 156.166 81.7368 156.623L82.084 159.788C82.1386 160.296 81.7716 160.752 81.2637 160.806C80.7559 160.86 80.2996 160.492 80.2459 159.984L79.8987 156.833C79.8426 156.324 80.2101 155.867 80.719 155.814C80.7395 155.811 80.7598 155.808 80.7799 155.808ZM43.6614 157.697C43.9768 157.71 44.2383 157.958 44.2591 158.28C44.2796 158.623 44.0213 158.918 43.6786 158.941L40.9606 159.12C40.6174 159.143 40.3209 158.883 40.2981 158.54C40.275 158.196 40.5361 157.899 40.8798 157.877L43.5978 157.698C43.6183 157.697 43.6404 157.696 43.6614 157.697ZM14.938 160.934C14.9636 160.933 14.9882 160.933 15.0136 160.934C15.2995 160.945 15.5645 161.088 15.7305 161.321L19.4888 166.609C19.7888 167.026 19.6909 167.607 19.2716 167.903C18.8561 168.198 18.2804 168.101 17.9848 167.686L14.2292 162.388C13.9362 161.973 14.0336 161.4 14.4465 161.104C14.5911 161.001 14.7619 160.943 14.938 160.934ZM43.8098 161.515C44.153 161.494 44.4489 161.753 44.4711 162.096C44.4916 162.439 44.2333 162.735 43.8906 162.758L41.1727 162.937C40.8295 162.96 40.5329 162.699 40.5101 162.356C40.487 162.013 40.7481 161.716 41.0919 161.694L43.8098 161.515ZM63.5193 163.324C63.5598 163.322 63.5998 163.323 63.6398 163.326L71.0714 163.92C71.582 163.96 71.9641 164.406 71.9222 164.916C71.8766 165.425 71.4316 165.801 70.923 165.758L63.4901 165.164C62.9826 165.119 62.6077 164.674 62.6512 164.166C62.6917 163.709 63.061 163.349 63.5193 163.324ZM49.691 164.088C49.7716 164.083 49.8518 164.089 49.9307 164.109L55.1374 165.218C55.6374 165.323 55.9579 165.814 55.8517 166.314C55.7461 166.814 55.2531 167.132 54.7531 167.024L49.5438 165.919C49.0448 165.813 48.7259 165.322 48.8322 164.823C48.9186 164.413 49.272 164.109 49.691 164.088ZM36.3848 164.172C36.6728 164.162 36.9477 164.288 37.1295 164.511L40.8851 169.127C41.1904 169.5 41.1548 170.042 40.8149 170.372C40.888 170.349 40.9649 170.339 41.0415 170.343L43.7609 170.505C44.1045 170.525 44.3662 170.821 44.3452 171.165C44.3247 171.508 44.0298 171.769 43.6866 171.749L40.9673 171.587C40.6242 171.567 40.3628 171.272 40.383 170.929C40.3907 170.793 40.4424 170.665 40.5301 170.562C40.1611 170.718 39.7184 170.62 39.4528 170.292L35.6972 165.677C35.3774 165.283 35.435 164.705 35.8256 164.382C35.9836 164.252 36.1799 164.178 36.3848 164.172ZM40.5301 170.562C40.6099 170.528 40.6861 170.482 40.7567 170.424C40.7772 170.409 40.7967 170.39 40.8149 170.372C40.7041 170.408 40.6055 170.473 40.5301 170.562ZM25.2572 165.027C25.2875 165.025 25.3182 165.028 25.3485 165.029C25.5939 165.039 25.8259 165.144 25.9926 165.325L31.4576 171.214C31.8032 171.589 31.7805 172.173 31.4058 172.519C31.0318 172.866 30.4472 172.842 30.1005 172.466L24.6341 166.574C24.288 166.199 24.3125 165.615 24.6872 165.269C24.8447 165.124 25.0455 165.04 25.2572 165.027ZM41.0865 166.103C41.114 166.101 41.1414 166.101 41.1686 166.103L43.8879 166.264C44.2315 166.285 44.4933 166.58 44.4723 166.924C44.4518 167.267 44.1568 167.529 43.8137 167.508L41.0944 167.347C40.7513 167.326 40.4898 167.031 40.51 166.688C40.5279 166.376 40.7746 166.125 41.0865 166.103ZM82.4483 171.687C82.96 171.689 83.372 172.107 83.3679 172.619L83.2792 184.912C83.2775 185.424 82.8609 185.836 82.3489 185.832C81.8392 185.829 81.4279 185.414 81.4306 184.904L81.5193 172.608C81.521 172.097 81.9374 171.684 82.4483 171.687ZM40.8745 173.99C40.902 173.988 40.9294 173.988 40.9565 173.99L43.6759 174.152C44.0196 174.172 44.2812 174.468 44.2602 174.812C44.2449 175.061 44.0823 175.278 43.8468 175.362C43.8519 175.362 43.8571 175.362 43.8622 175.362V175.364L48.894 175.445C49.4048 175.45 49.8129 175.873 49.8043 176.383C49.7941 176.894 49.3729 177.301 48.8621 177.291L43.833 177.2C43.3222 177.194 42.9142 176.772 42.9226 176.261C42.9355 175.847 43.2173 175.503 43.5972 175.396L40.8832 175.234C40.5401 175.214 40.2786 174.919 40.2988 174.576C40.3167 174.264 40.5626 174.013 40.8745 173.99ZM43.8468 175.362C43.7609 175.362 43.6761 175.374 43.5972 175.396L43.603 175.396C43.6853 175.401 43.7688 175.388 43.8468 175.362ZM61.024 176.047C61.0542 176.045 61.0868 176.046 61.1181 176.047L67.1 176.214C67.6109 176.229 68.0142 176.653 67.9998 177.164C67.9844 177.675 67.5607 178.077 67.0496 178.062L61.069 177.895C60.5539 177.88 60.149 177.451 60.1693 176.936C60.1898 176.461 60.5595 176.08 61.024 176.047ZM40.3657 178.697C40.3931 178.695 40.4205 178.695 40.4477 178.697L43.167 178.859C43.5106 178.879 43.7724 179.175 43.7514 179.519C43.7309 179.862 43.4359 180.123 43.0928 180.103L40.3735 179.941C40.0304 179.921 39.7689 179.626 39.7891 179.283C39.807 178.971 40.0538 178.72 40.3657 178.697ZM92.9053 189.538C93.4132 189.518 93.8432 189.912 93.8661 190.42L94.2994 200.924C94.3199 201.435 93.9213 201.865 93.4102 201.884C92.9023 201.904 92.4736 201.51 92.4507 201.003L92.0267 190.498C92.0062 189.991 92.3986 189.563 92.9053 189.538ZM79.0531 194.581C79.0836 194.579 79.1154 194.58 79.1472 194.581C79.6539 194.601 80.0509 195.023 80.0364 195.53L79.6919 205.096C79.6714 205.603 79.2487 206 78.7417 205.985C78.2277 205.97 77.823 205.541 77.8419 205.027L78.1878 195.469C78.2083 194.989 78.5853 194.61 79.0531 194.581ZM84.6494 207.641C84.6648 207.64 84.6817 207.642 84.6971 207.643C85.1631 207.664 85.5493 208.031 85.581 208.506L86.0077 214.911C86.038 215.418 85.6535 215.855 85.1464 215.888C84.6401 215.919 84.2035 215.537 84.1684 215.031L83.7429 208.624C83.7127 208.117 84.0959 207.68 84.603 207.646C84.6184 207.645 84.6335 207.643 84.6494 207.641ZM88.674 223.352C89.1888 223.347 89.6083 223.766 89.6056 224.281V230.428C89.6039 230.94 89.1859 231.354 88.674 231.349C88.1673 231.347 87.7586 230.935 87.757 230.428V224.281C87.7544 223.771 88.164 223.355 88.674 223.352ZM78.9909 227.707C79.0114 227.706 79.0301 227.707 79.0504 227.707C79.5139 227.717 79.8975 228.069 79.9475 228.529L80.7082 235.705C80.7648 236.21 80.4035 236.667 79.8985 236.726C79.3906 236.78 78.9344 236.413 78.8807 235.905L78.1095 228.728C78.0548 228.22 78.4219 227.766 78.9298 227.712C78.9503 227.709 78.9708 227.707 78.9909 227.707ZM93.8939 242.231C93.9344 242.232 93.9729 242.236 94.0118 242.241C94.5164 242.308 94.8706 242.771 94.8043 243.276L94.0331 248.834C93.9587 249.334 93.4965 249.681 92.9954 249.613C92.4909 249.544 92.1376 249.08 92.2056 248.575L92.9742 243.02C93.0409 242.564 93.4328 242.227 93.8939 242.231ZM78.7629 243.853C79.2685 243.85 79.6831 244.253 79.6919 244.759L79.7806 252.195C79.7832 252.701 79.377 253.115 78.8702 253.122C78.3594 253.132 77.9394 252.724 77.932 252.213L77.8432 244.78C77.8407 244.269 78.2523 243.854 78.7629 243.853ZM86.0515 248.978C86.5181 248.994 86.9092 249.355 86.9459 249.831L87.4614 256.829C87.4968 257.337 87.1165 257.78 86.608 257.817C86.1017 257.853 85.6613 257.473 85.6221 256.967L85.1079 249.97C85.0725 249.462 85.45 249.02 85.9574 248.981C85.9876 248.979 86.0207 248.978 86.0515 248.978ZM90.508 260.416C90.5383 260.414 90.5704 260.414 90.6022 260.416C91.1133 260.442 91.5097 260.877 91.4833 261.387L91.3058 264.637C91.2756 265.145 90.844 265.535 90.3358 265.509C89.8289 265.479 89.44 265.045 89.4665 264.537L89.6347 261.297C89.6603 260.818 90.0394 260.441 90.508 260.416ZM76.0609 264.005C76.1014 264.002 76.1414 264.002 76.1814 264.005C76.6884 264.04 77.0739 264.475 77.0428 264.983L76.8746 267.89C76.8392 268.397 76.4014 268.781 75.894 268.749C75.3879 268.719 75.0009 268.288 75.0259 267.781L75.2034 264.875C75.229 264.41 75.5963 264.037 76.0609 264.005ZM99.2158 265.032C99.2461 265.03 99.2781 265.03 99.3099 265.032C99.8178 265.057 100.212 265.485 100.191 265.992L100.022 269.669C99.996 270.179 99.5644 270.572 99.0543 270.547C98.5443 270.521 98.1508 270.09 98.1757 269.58L98.3426 265.914C98.3683 265.435 98.7472 265.056 99.2158 265.032Z" fill="white"/>
<path d="M126.071 192.615L124.819 200.189C124.819 200.189 124.257 198.026 123.442 197.372C123.023 197.037 122.389 196.836 121.877 196.997C121.398 197.148 120.956 197.627 120.876 198.123C120.646 199.535 121.477 201.139 122.566 202.067C123.155 202.569 124.122 202.968 124.819 202.63C125.827 202.141 126.196 199.563 126.196 199.563L127.197 194.743C127.197 194.743 129.515 195.957 130.765 196.308C132.407 196.77 135.835 196.997 135.835 196.997L132.956 203.569C132.956 203.569 132.684 201.67 131.954 201.253C131.516 201.003 130.816 201.091 130.452 201.44C129.798 202.071 129.787 203.252 130.014 204.132C130.234 204.981 130.917 205.704 131.641 206.197C132.002 206.442 132.893 206.573 132.893 206.573L138.088 195.619C138.088 195.619 133.457 195.019 131.203 194.43C129.448 193.972 126.071 192.615 126.071 192.615ZM127.756 195.863C127.722 195.864 127.688 195.874 127.659 195.892C127.63 195.909 127.606 195.935 127.589 195.965C127.577 195.987 127.569 196.012 127.567 196.037C127.564 196.062 127.566 196.088 127.573 196.113C127.581 196.137 127.592 196.16 127.609 196.18C127.625 196.2 127.644 196.217 127.667 196.229C127.667 196.229 128.086 196.458 128.618 196.715C129.151 196.972 129.794 197.256 130.282 197.373C131.058 197.557 132.201 197.619 133.163 197.637C133.947 197.653 134.361 197.637 134.579 197.629L132.72 201.352C132.697 201.398 132.693 201.451 132.709 201.5C132.726 201.549 132.761 201.589 132.807 201.612C132.853 201.635 132.906 201.639 132.955 201.623C133.004 201.607 133.044 201.572 133.067 201.526L135.217 197.227L134.889 197.237C134.889 197.237 134.122 197.263 133.171 197.245C132.219 197.227 131.081 197.162 130.372 196.993C129.952 196.893 129.31 196.614 128.787 196.362C128.264 196.109 127.853 195.884 127.853 195.884C127.823 195.869 127.79 195.861 127.756 195.863ZM137.845 197.366C137.803 197.365 137.761 197.377 137.726 197.402C137.691 197.427 137.666 197.462 137.653 197.503C137.653 197.503 137.012 199.582 136.596 200.55C136.087 201.733 134.79 204.038 134.79 204.038C134.765 204.083 134.758 204.135 134.772 204.185C134.786 204.235 134.819 204.277 134.864 204.302C134.908 204.327 134.961 204.333 135.011 204.32C135.06 204.306 135.103 204.273 135.128 204.228C135.128 204.228 136.421 201.938 136.952 200.703C137.39 199.683 138.024 197.617 138.024 197.617C138.039 197.568 138.033 197.515 138.009 197.469C137.985 197.424 137.944 197.39 137.895 197.375C137.879 197.37 137.862 197.367 137.845 197.366Z" fill="white"/>
<path d="M99.4487 155.019C99.1046 154.978 98.6838 155.045 98.1808 155.138L92.3617 156.212C90.7785 156.504 91.3458 157.879 91.3904 158.465L91.5361 160.368L89.3307 161.871L91.7245 161.881L91.9891 163.359L90.3375 164.369L92.2397 164.506L92.6183 166.003L90.8976 167.142L92.8727 167.126L93.1435 168.018C93.1435 168.018 93.7653 168.489 94.0809 168.718C94.7174 169.18 96.009 170.08 96.009 170.08L107.572 211.879C107.572 211.879 103.633 213.365 101.945 214.583C100.126 215.895 98.5934 217.611 97.2687 219.421C96.0178 221.13 94.8094 222.969 94.2487 225.012C93.7379 226.872 93.5941 228.91 94.0138 230.795C94.4455 232.755 95.38 234.697 96.7641 236.149C98.2395 237.697 100.824 237.827 102.323 239.351C103.155 240.197 103.766 241.311 104.047 242.463C104.461 244.16 104.088 245.963 103.905 247.699C103.624 250.401 102.496 253 102.445 255.716C102.392 258.439 102.678 261.242 103.601 263.804C104.492 266.273 105.945 268.581 107.717 270.517C109.189 272.127 111.031 273.419 112.969 274.419C115.63 275.792 118.578 276.599 121.513 277.191C123.669 277.627 125.89 277.841 128.088 277.749C129.95 277.671 131.855 277.464 133.602 276.811C135.364 276.152 136.997 275.103 138.423 273.876C140.562 272.035 142.482 269.848 143.852 267.381C145.169 265.007 145.993 262.328 146.393 259.642C146.799 256.906 146.685 254.071 146.211 251.345C145.785 248.897 145.091 246.426 143.848 244.273C142.739 242.353 141.155 240.696 139.437 239.294C137.576 237.775 134.828 237.454 133.194 235.693C132.215 234.639 131.558 233.223 131.321 231.804C131.025 230.036 131.88 228.255 131.95 226.464C132.049 224.038 132.179 221.563 131.688 219.186C131.179 216.719 130.386 214.209 128.944 212.143C127.906 210.654 126.516 209.288 124.863 208.535C123.374 207.856 121.624 207.731 119.994 207.893C118.771 208.014 116.504 209.082 116.504 209.082L102.383 167.41C102.383 167.41 103.674 165.717 103.321 164.658L100.401 155.894C100.205 155.306 99.8905 155.072 99.4487 155.019ZM98.1306 158.638C98.1918 158.651 98.2487 158.679 98.2955 158.72C98.3422 158.762 98.3774 158.815 98.3973 158.874C98.3973 158.874 107.469 186.615 111.866 200.534C116.38 214.819 125.115 243.468 125.115 243.468C125.129 243.513 125.134 243.56 125.13 243.607C125.126 243.654 125.112 243.7 125.09 243.741C125.068 243.783 125.038 243.82 125.002 243.85C124.965 243.88 124.923 243.902 124.878 243.916C124.788 243.943 124.69 243.933 124.606 243.888C124.523 243.843 124.461 243.766 124.434 243.676C124.434 243.676 115.694 215.023 111.183 200.747C106.789 186.837 97.719 159.096 97.719 159.096C97.69 159.006 97.6978 158.908 97.7407 158.824C97.7835 158.74 97.858 158.676 97.9477 158.647C98.0068 158.627 98.0698 158.625 98.1306 158.638ZM95.1708 158.489C95.2409 158.497 95.307 158.526 95.361 158.571C95.4149 158.617 95.4542 158.677 95.4739 158.745L107.998 202.513L120.008 246.192C120.02 246.237 120.024 246.284 120.018 246.331C120.012 246.378 119.997 246.423 119.974 246.463C119.951 246.504 119.92 246.54 119.883 246.569C119.846 246.598 119.803 246.619 119.758 246.632C119.713 246.644 119.665 246.647 119.619 246.642C119.572 246.636 119.527 246.621 119.486 246.598C119.445 246.574 119.41 246.543 119.381 246.506C119.352 246.469 119.331 246.427 119.318 246.382L107.311 202.705L94.7855 158.943C94.7726 158.898 94.7686 158.85 94.774 158.803C94.7794 158.757 94.7941 158.711 94.817 158.67C94.8399 158.629 94.8708 158.593 94.9078 158.564C94.9448 158.534 94.9871 158.513 95.0325 158.5C95.0776 158.488 95.1243 158.484 95.1708 158.489ZM96.813 159.122C96.8832 159.129 96.9497 159.157 97.0041 159.202C97.0585 159.247 97.0983 159.307 97.1187 159.375L109.891 201.512L122.36 243.867C122.373 243.912 122.378 243.959 122.373 244.006C122.368 244.052 122.354 244.098 122.331 244.139C122.309 244.18 122.278 244.217 122.242 244.246C122.205 244.276 122.163 244.298 122.118 244.311C122.073 244.324 122.026 244.329 121.979 244.324C121.933 244.319 121.887 244.305 121.846 244.282C121.805 244.26 121.768 244.229 121.739 244.193C121.709 244.156 121.687 244.114 121.674 244.069L109.205 201.717L96.4353 159.583C96.4215 159.538 96.4167 159.49 96.4213 159.443C96.4259 159.396 96.4397 159.351 96.4619 159.309C96.4842 159.268 96.5144 159.231 96.5509 159.201C96.5874 159.171 96.6294 159.149 96.6746 159.135C96.7197 159.123 96.7668 159.119 96.8133 159.125L96.813 159.122ZM123.568 210.366C123.934 210.439 124.303 210.528 124.664 210.646C126.951 211.38 128.515 213.209 129.401 215.639C129.615 216.227 129.996 216.936 130.265 218.155C130.533 219.374 130.689 221.089 130.541 223.821C130.42 226.026 130.019 227.908 130.184 230.503C130.219 231.048 130.469 233.39 131.371 235.105C132.43 237.12 135.505 239.249 137.42 240.308C140.221 241.857 141.98 243.111 143.435 246.085C143.772 246.776 144.234 247.95 144.628 249.19C145.021 250.429 145.349 251.68 145.346 252.657C145.341 254.605 145.256 255.819 145.047 257.809C144.894 259.255 144.46 261.646 143.623 264.104C143.095 265.654 142.631 267.58 141.165 269.362C140.227 270.5 138.105 273.106 138.105 273.106C137.858 273.408 137.411 273.452 137.109 273.205C136.807 272.958 136.762 272.514 137.007 272.211C137.007 272.211 139.129 269.609 140.073 268.463C141.313 266.957 141.726 265.286 142.284 263.648C143.078 261.315 143.498 258.986 143.638 257.66C143.845 255.689 143.926 254.564 143.932 252.654C143.933 252.046 143.65 250.797 143.276 249.619C142.902 248.44 142.441 247.277 142.161 246.705C140.827 243.976 139.484 243.068 136.734 241.547C134.705 240.424 131.483 238.358 130.119 235.762C129.031 233.695 128.813 231.266 128.77 230.592C128.594 227.811 129.016 225.815 129.128 223.744C129.272 221.096 129.118 219.519 128.884 218.46C128.65 217.402 128.336 216.85 128.071 216.122C127.286 213.969 126.06 212.578 124.232 211.992C121.827 211.221 118.72 211.721 118.72 211.721C118.336 211.788 117.968 211.531 117.9 211.146C117.832 210.76 118.092 210.392 118.478 210.326C118.478 210.326 121 209.86 123.568 210.366ZM120.755 212.788C120.953 212.821 121.142 212.894 121.312 213C121.482 213.107 121.629 213.247 121.745 213.41C121.861 213.574 121.943 213.759 121.988 213.955C122.032 214.15 122.038 214.353 122.004 214.55C121.971 214.748 121.898 214.937 121.791 215.107C121.685 215.277 121.545 215.424 121.382 215.54C121.218 215.656 121.033 215.739 120.837 215.783C120.642 215.828 120.439 215.833 120.241 215.8C120.044 215.766 119.854 215.694 119.685 215.587C119.515 215.48 119.368 215.341 119.252 215.177C119.136 215.013 119.053 214.828 119.008 214.633C118.964 214.437 118.958 214.235 118.992 214.037C119.06 213.637 119.284 213.281 119.615 213.047C119.945 212.813 120.356 212.719 120.755 212.788ZM125.303 215.724C125.501 215.757 125.69 215.83 125.86 215.937C126.03 216.043 126.177 216.183 126.293 216.346C126.409 216.51 126.491 216.695 126.536 216.891C126.581 217.086 126.586 217.289 126.552 217.487C126.519 217.684 126.446 217.874 126.339 218.043C126.233 218.213 126.093 218.36 125.93 218.476C125.766 218.592 125.581 218.675 125.385 218.719C125.19 218.764 124.987 218.77 124.789 218.736C124.592 218.702 124.402 218.63 124.233 218.523C124.063 218.416 123.916 218.277 123.8 218.113C123.684 217.949 123.601 217.764 123.557 217.569C123.512 217.373 123.506 217.171 123.54 216.973C123.608 216.573 123.832 216.217 124.163 215.983C124.494 215.749 124.904 215.655 125.303 215.724ZM106.936 213.811C107.119 213.851 107.279 213.962 107.381 214.118C107.593 214.448 107.495 214.887 107.167 215.098C107.167 215.098 102.949 217.83 101.218 219.719C99.7978 221.269 98.5462 223.027 97.8408 224.932C97.4304 226.041 97.3065 227.308 97.3535 228.554C97.3888 229.432 97.5396 230.306 97.8809 231.037C98.5484 232.468 99.6567 233.752 100.879 234.877C102.304 236.187 104.426 236.893 106.224 238.354C106.599 238.658 107.08 239.222 107.548 240.061C108.016 240.901 108.428 241.993 108.408 243.228C108.367 245.863 107.646 249.316 107.293 251.764L107.292 251.769L107.292 251.774C106.797 254.885 106.461 257.942 107.016 260.919C107.256 262.164 107.907 263.529 108.522 264.792C109.325 266.443 110.472 267.967 111.777 269.303C112.589 270.133 116.441 273.024 118.132 273.721C119.606 274.327 121.897 274.922 123.47 275.08C124.797 275.212 127.844 275.064 127.844 275.064C128.234 275.044 128.567 275.344 128.587 275.734C128.607 276.124 128.309 276.456 127.92 276.477C127.92 276.477 124.948 276.65 123.33 276.487C121.551 276.309 119.234 275.704 117.593 275.029C115.412 274.132 111.902 271.455 110.765 270.293C109.374 268.869 108.137 267.23 107.252 265.411C106.638 264.148 105.915 262.697 105.624 261.181L105.624 261.179C105.02 257.935 105.391 254.714 105.891 251.564C106.254 249.037 106.95 245.595 106.992 243.206C107.008 242.305 106.696 241.436 106.313 240.749C105.93 240.063 105.433 239.535 105.333 239.454C103.808 238.215 101.646 237.505 99.9203 235.918C98.6186 234.721 97.3806 233.314 96.5981 231.637C96.1447 230.665 95.9802 229.608 95.9421 228.608C95.8901 227.234 96.017 225.788 96.5164 224.44C97.312 222.292 98.6754 220.398 100.175 218.762C102.201 216.551 106.407 213.906 106.407 213.906C106.565 213.805 106.754 213.771 106.936 213.811ZM107.73 217.282C107.928 217.316 108.117 217.388 108.287 217.495C108.457 217.602 108.604 217.741 108.72 217.905C108.836 218.069 108.919 218.254 108.963 218.449C109.008 218.645 109.013 218.847 108.98 219.045C108.911 219.445 108.687 219.801 108.357 220.035C108.026 220.269 107.616 220.362 107.217 220.294C106.817 220.226 106.461 220.002 106.227 219.672C105.993 219.341 105.899 218.931 105.967 218.531C106.036 218.132 106.26 217.776 106.59 217.542C106.921 217.308 107.331 217.214 107.73 217.282ZM126.282 221.691C126.681 221.759 127.037 221.983 127.271 222.314C127.506 222.644 127.599 223.054 127.531 223.454C127.463 223.853 127.239 224.209 126.908 224.443C126.577 224.678 126.167 224.771 125.768 224.703C125.57 224.669 125.381 224.597 125.211 224.49C125.041 224.383 124.894 224.244 124.778 224.08C124.662 223.917 124.579 223.732 124.535 223.536C124.49 223.34 124.485 223.138 124.519 222.94C124.587 222.541 124.811 222.185 125.141 221.95C125.472 221.716 125.882 221.623 126.282 221.691ZM101.965 222.17C102.365 222.238 102.721 222.462 102.955 222.792C103.189 223.123 103.283 223.533 103.215 223.932C103.181 224.13 103.108 224.319 103.002 224.489C102.895 224.659 102.756 224.806 102.592 224.922C102.428 225.038 102.243 225.121 102.048 225.165C101.852 225.21 101.649 225.215 101.452 225.182C101.254 225.148 101.065 225.076 100.895 224.969C100.725 224.862 100.578 224.723 100.462 224.559C100.346 224.395 100.263 224.21 100.219 224.015C100.174 223.819 100.169 223.617 100.202 223.419C100.271 223.019 100.495 222.663 100.825 222.429C101.156 222.195 101.566 222.101 101.965 222.17ZM101.498 228.9C101.696 228.934 101.885 229.006 102.055 229.113C102.225 229.22 102.372 229.359 102.488 229.523C102.604 229.686 102.687 229.871 102.731 230.067C102.776 230.263 102.781 230.465 102.747 230.663C102.679 231.062 102.455 231.418 102.125 231.653C101.794 231.887 101.384 231.98 100.985 231.912C100.585 231.844 100.229 231.62 99.9948 231.289C99.7605 230.959 99.6672 230.549 99.7353 230.149C99.769 229.951 99.8414 229.762 99.9482 229.592C100.055 229.423 100.194 229.275 100.358 229.159C100.522 229.043 100.707 228.961 100.902 228.916C101.098 228.872 101.3 228.866 101.498 228.9ZM127.109 245.076C131.47 245.82 133.992 250.021 133.249 254.381C132.505 258.742 128.497 261.297 124.137 260.554C119.776 259.81 117.66 256.343 118.403 251.982C119.147 247.621 122.748 244.332 127.109 245.076ZM139.983 247.869C140.382 247.937 140.738 248.161 140.972 248.492C141.207 248.822 141.3 249.233 141.232 249.632C141.164 250.031 140.94 250.387 140.609 250.622C140.279 250.856 139.868 250.949 139.469 250.881C139.271 250.847 139.082 250.775 138.912 250.668C138.742 250.561 138.595 250.422 138.479 250.258C138.363 250.095 138.281 249.91 138.236 249.714C138.192 249.519 138.186 249.316 138.22 249.118C138.288 248.719 138.512 248.363 138.843 248.129C139.173 247.894 139.583 247.801 139.983 247.869ZM141.09 253.836C141.288 253.87 141.477 253.942 141.647 254.049C141.817 254.156 141.964 254.295 142.08 254.459C142.196 254.623 142.279 254.808 142.323 255.003C142.368 255.199 142.373 255.401 142.339 255.599C142.271 255.999 142.047 256.355 141.717 256.589C141.386 256.823 140.976 256.917 140.576 256.848C140.379 256.815 140.189 256.742 140.02 256.635C139.85 256.529 139.703 256.389 139.587 256.226C139.471 256.062 139.388 255.877 139.344 255.681C139.299 255.486 139.294 255.283 139.327 255.085C139.361 254.888 139.433 254.698 139.54 254.529C139.647 254.359 139.786 254.212 139.95 254.096C140.114 253.98 140.299 253.897 140.494 253.853C140.69 253.808 140.892 253.802 141.09 253.836ZM110.341 254.945C110.539 254.978 110.728 255.051 110.898 255.158C111.068 255.265 111.215 255.404 111.331 255.567C111.447 255.731 111.529 255.916 111.574 256.112C111.618 256.307 111.624 256.51 111.59 256.708C111.522 257.107 111.298 257.463 110.967 257.697C110.637 257.932 110.227 258.025 109.827 257.957C109.428 257.889 109.072 257.665 108.838 257.334C108.603 257.004 108.51 256.593 108.578 256.194C108.612 255.996 108.684 255.807 108.791 255.637C108.898 255.467 109.037 255.32 109.201 255.204C109.365 255.088 109.549 255.006 109.745 254.961C109.941 254.917 110.143 254.911 110.341 254.945ZM139.904 260.012C140.102 260.046 140.291 260.119 140.461 260.225C140.631 260.332 140.778 260.471 140.894 260.635C141.01 260.799 141.092 260.984 141.137 261.179C141.181 261.375 141.187 261.578 141.153 261.775C141.085 262.175 140.861 262.531 140.53 262.765C140.2 262.999 139.79 263.093 139.39 263.025C138.991 262.956 138.635 262.732 138.401 262.402C138.166 262.071 138.073 261.661 138.141 261.262C138.175 261.064 138.247 260.875 138.354 260.705C138.461 260.535 138.6 260.388 138.764 260.272C138.928 260.156 139.112 260.073 139.308 260.029C139.504 259.984 139.706 259.979 139.904 260.012ZM131.377 259.848C131.439 259.86 131.496 259.889 131.543 259.931C131.59 259.973 131.625 260.026 131.645 260.086L132.989 264.197L135.372 263.217L136.714 267.033L134.255 268.067L135.879 273.031C135.908 273.121 135.901 273.219 135.858 273.303C135.815 273.388 135.74 273.452 135.65 273.481C135.606 273.496 135.559 273.502 135.512 273.498C135.465 273.495 135.419 273.482 135.377 273.461C135.335 273.44 135.297 273.41 135.267 273.375C135.236 273.339 135.213 273.298 135.198 273.253L133.592 268.345L131.725 269.131L133.313 274.055C133.328 274.1 133.333 274.147 133.33 274.194C133.326 274.241 133.313 274.287 133.291 274.329C133.27 274.371 133.24 274.409 133.204 274.439C133.168 274.469 133.126 274.492 133.081 274.507C132.991 274.535 132.893 274.527 132.809 274.484C132.724 274.44 132.661 274.365 132.632 274.275L131.062 269.409L129.234 270.178L130.875 275.503C130.903 275.594 130.894 275.692 130.85 275.776C130.806 275.86 130.73 275.923 130.64 275.951C130.595 275.965 130.548 275.97 130.501 275.965C130.454 275.961 130.408 275.947 130.367 275.925C130.325 275.903 130.288 275.873 130.258 275.837C130.228 275.801 130.206 275.759 130.192 275.714L128.572 270.456L126.265 271.427L124.87 267.536L127.357 266.513L126.087 262.394C126.073 262.349 126.069 262.302 126.073 262.255C126.077 262.208 126.091 262.162 126.113 262.121C126.135 262.079 126.165 262.042 126.202 262.012C126.238 261.982 126.28 261.96 126.325 261.946C126.415 261.919 126.513 261.928 126.596 261.973C126.679 262.017 126.742 262.092 126.77 262.183L128.02 266.24L129.804 265.506L128.461 261.342C128.446 261.298 128.44 261.25 128.444 261.203C128.447 261.156 128.46 261.111 128.482 261.069C128.503 261.027 128.532 260.989 128.568 260.959C128.604 260.928 128.646 260.905 128.69 260.89C128.735 260.876 128.783 260.87 128.83 260.874C128.877 260.878 128.923 260.891 128.965 260.913C129.007 260.934 129.044 260.964 129.074 261C129.105 261.036 129.128 261.078 129.142 261.123L130.468 265.234L132.324 264.47L130.962 260.307C130.933 260.217 130.941 260.119 130.984 260.035C131.027 259.951 131.102 259.887 131.192 259.858C131.251 259.838 131.316 259.835 131.377 259.848ZM112.902 262.922C113.302 262.99 113.658 263.214 113.892 263.545C114.126 263.875 114.219 264.285 114.151 264.685C114.083 265.084 113.859 265.44 113.529 265.674C113.198 265.909 112.788 266.002 112.388 265.934C111.989 265.866 111.633 265.642 111.399 265.311C111.164 264.981 111.071 264.57 111.139 264.171C111.207 263.772 111.431 263.416 111.762 263.181C112.093 262.947 112.503 262.854 112.902 262.922ZM119.067 268.083C119.265 268.116 119.454 268.189 119.624 268.296C119.793 268.402 119.941 268.542 120.057 268.705C120.173 268.869 120.255 269.054 120.3 269.25C120.344 269.445 120.35 269.648 120.316 269.846C120.282 270.043 120.21 270.233 120.103 270.402C119.996 270.572 119.857 270.719 119.693 270.835C119.53 270.951 119.345 271.034 119.149 271.079C118.953 271.123 118.751 271.129 118.553 271.095C118.154 271.027 117.798 270.803 117.563 270.472C117.329 270.142 117.236 269.731 117.304 269.332C117.338 269.134 117.41 268.945 117.517 268.775C117.624 268.605 117.763 268.458 117.927 268.342C118.09 268.226 118.275 268.144 118.471 268.099C118.667 268.055 118.869 268.049 119.067 268.083Z" fill="white"/>
<path d="M149.963 210.587C149.963 210.587 147.62 210.672 146.469 210.873C145.319 211.074 143.089 211.79 143.089 211.79C143.089 211.79 143.959 215.428 144.12 216.945C144.282 218.462 144.177 220.84 144.177 220.84C144.177 220.84 143.253 220.476 142.631 220.096C142.008 219.716 141.393 218.603 140.512 218.492C139.631 218.38 138.562 218.615 138.048 219.523C137.535 220.43 137.842 222.104 138.564 223.074C139.285 224.044 140.61 224.647 141.886 224.621C143.163 224.595 144.735 223.845 145.437 222.788C146.14 221.731 145.776 220.785 145.724 219.179C145.673 217.573 144.865 213.222 144.865 213.222C144.865 213.222 145.936 213.054 146.813 212.649C147.69 212.244 149.963 210.587 149.963 210.587ZM141.995 212.144C141.98 212.145 141.966 212.147 141.953 212.151C141.932 212.158 141.913 212.168 141.897 212.182C141.88 212.195 141.867 212.212 141.857 212.231C141.847 212.25 141.841 212.27 141.839 212.291C141.837 212.313 141.839 212.334 141.845 212.355C141.845 212.355 142.784 215.384 142.986 216.909C143.112 217.857 143.041 219.861 143.041 219.861C143.04 219.903 143.055 219.945 143.085 219.977C143.114 220.008 143.154 220.027 143.197 220.028C143.218 220.029 143.24 220.026 143.26 220.019C143.28 220.011 143.298 220 143.314 219.986C143.33 219.971 143.343 219.954 143.352 219.934C143.361 219.915 143.366 219.894 143.366 219.873C143.366 219.873 143.443 217.886 143.307 216.866C143.095 215.269 142.156 212.256 142.156 212.256C142.145 212.223 142.124 212.193 142.094 212.173C142.065 212.152 142.03 212.142 141.995 212.144Z" fill="white"/>
<path d="M20.1766 172.131L18.7362 175.368L17.0571 198.997H21.8557L23.7745 178.367L20.1766 172.131ZM19.6041 179.524C19.631 179.522 19.658 179.522 19.6849 179.524L22.4029 179.707C22.5677 179.718 22.7213 179.794 22.8299 179.919C22.9385 180.043 22.9932 180.206 22.982 180.371C22.9765 180.452 22.955 180.532 22.9187 180.606C22.8824 180.679 22.832 180.745 22.7703 180.798C22.7087 180.852 22.6371 180.894 22.5594 180.92C22.4818 180.946 22.3998 180.957 22.3181 180.951L19.6002 180.767C19.4353 180.756 19.2817 180.679 19.1731 180.555C19.0645 180.43 19.0098 180.268 19.021 180.103C19.0314 179.952 19.0963 179.81 19.2035 179.704C19.3108 179.597 19.4532 179.533 19.6041 179.524ZM19.3033 183.362C19.3306 183.36 19.3581 183.36 19.3854 183.362L22.102 183.546C22.1837 183.551 22.2636 183.573 22.337 183.609C22.4104 183.645 22.476 183.696 22.5299 183.757C22.5838 183.819 22.6251 183.891 22.6512 183.968C22.6774 184.046 22.688 184.128 22.6825 184.21C22.6712 184.374 22.5949 184.528 22.4704 184.637C22.3459 184.745 22.1834 184.8 22.0186 184.789L19.3006 184.605C19.136 184.593 18.9826 184.517 18.8741 184.393C18.7655 184.269 18.7107 184.107 18.7215 183.942C18.7316 183.791 18.7961 183.649 18.9032 183.542C19.0102 183.436 19.1524 183.371 19.3033 183.362ZM18.9442 187.32C18.9711 187.318 18.9981 187.318 19.025 187.32L21.743 187.503C21.9078 187.514 22.0614 187.59 22.1699 187.715C22.2785 187.839 22.3332 188.002 22.322 188.167C22.3166 188.248 22.2952 188.328 22.2588 188.402C22.2225 188.475 22.1721 188.541 22.1104 188.595C22.0487 188.648 21.9771 188.69 21.8995 188.716C21.8219 188.742 21.7398 188.753 21.6581 188.747L18.9402 188.563C18.7754 188.552 18.6218 188.475 18.5132 188.351C18.4046 188.226 18.3499 188.064 18.3611 187.899C18.3715 187.748 18.4364 187.606 18.5437 187.5C18.6509 187.393 18.7933 187.329 18.9442 187.32ZM18.6434 191.458C18.6707 191.457 18.6981 191.457 18.7255 191.458L21.4434 191.641C21.6082 191.653 21.7618 191.729 21.8704 191.853C21.979 191.978 22.0337 192.14 22.0225 192.305C22.0112 192.47 21.9349 192.624 21.8104 192.732C21.6859 192.841 21.5235 192.896 21.3586 192.884L18.6406 192.701C18.4758 192.69 18.3222 192.614 18.2136 192.489C18.1051 192.365 18.0503 192.202 18.0615 192.038C18.0719 191.887 18.1366 191.745 18.2436 191.639C18.3506 191.532 18.4927 191.468 18.6434 191.458ZM18.2842 195.476C18.3111 195.475 18.3381 195.475 18.365 195.476L21.083 195.659C21.2478 195.671 21.4014 195.747 21.51 195.871C21.6186 195.996 21.6733 196.158 21.6621 196.323C21.6508 196.488 21.5745 196.642 21.45 196.75C21.3255 196.859 21.163 196.913 20.9982 196.902L18.2816 196.719C18.1998 196.714 18.12 196.693 18.0466 196.656C17.9731 196.62 17.9076 196.569 17.8536 196.508C17.7997 196.446 17.7585 196.374 17.7323 196.297C17.7062 196.219 17.6956 196.137 17.7011 196.056C17.7115 195.905 17.7764 195.763 17.8836 195.656C17.9909 195.55 18.1333 195.486 18.2842 195.476Z" fill="white"/>
<path d="M35.9324 192.849C35.9324 192.849 26.0442 197.683 20.6814 198.36C15.4621 199.019 4.97125 196.856 4.97125 196.856C4.97125 196.856 6.49286 215.185 12.1032 221.741C15.2008 225.36 20.3366 228.304 25.0689 227.754C29.1352 227.281 32.8565 223.809 34.727 220.168C38.892 212.06 35.9324 192.849 35.9324 192.849ZM30.6274 202.035C31.9012 202.252 33.532 203.199 34.1831 204.315C34.6782 205.164 34.5557 206.981 34.5557 206.981C34.5557 206.981 31.3725 204.845 29.7178 204.716C28.0659 204.587 24.9619 206.161 24.9619 206.161C24.9619 206.161 25.3642 203.832 26.5114 203.057C27.5207 202.376 29.4268 201.83 30.6274 202.035ZM16.9307 203.782C17.2946 203.84 17.6341 203.917 17.9205 204.021C19.2231 204.489 20.1877 206.648 20.1877 206.648C20.1877 206.648 16.7912 205.888 15.2222 206.42C13.6504 206.953 11.0921 209.808 11.0921 209.808C11.0921 209.808 10.5255 208.078 10.796 207.133C11.152 205.891 12.4983 204.57 13.6794 204.046C14.5143 203.675 15.8377 203.615 16.9307 203.782ZM30.6757 215.436C30.6757 215.436 29.9578 217.912 29.1002 218.809C27.7314 220.24 25.8017 221.332 23.8346 221.56C22.2935 221.738 20.6623 221.193 19.3266 220.404C18.1602 219.715 16.5422 217.444 16.5422 217.444C16.5422 217.444 21.1554 218.61 23.461 218.315C26.0293 217.986 30.6757 215.436 30.6757 215.436Z" fill="white"/>
<path d="M33.6053 183.367C33.6053 183.367 31.6999 188.577 29.1539 194.963C33.7892 193.317 36.4404 191.281 36.4404 191.281C36.4404 191.281 36.8637 193.379 37.2774 196.479C37.4269 196.657 37.5766 196.812 37.725 196.933C39.0098 197.979 42.458 198.451 42.458 198.451C42.458 198.451 40.8014 200.138 39.4172 200.122C38.9082 200.117 38.2837 200.001 37.6661 199.806C37.965 202.815 38.1608 206.264 38.0088 209.535C38.3555 209.633 38.6908 209.762 39.0081 209.925C40.7696 210.83 42.192 212.53 42.9703 214.351C43.4579 215.492 43.2594 218.063 43.2594 218.063C43.2594 218.063 39.988 214.254 37.7029 212.934C37.4074 215.034 36.9078 216.947 36.1248 218.471C35.3435 219.992 34.7734 221.989 33.4561 223.244C37.7526 224.67 42.5602 223.126 46.499 220.956C54.5182 216.536 62.8679 198.896 62.8679 198.896C62.8679 198.896 51.6389 197.131 46.7 194.529C41.6253 191.856 33.6053 183.367 33.6053 183.367ZM46.6604 200.769C46.6604 200.769 49.0203 203.327 50.6134 203.782C52.2093 204.238 55.9375 203.347 55.9375 203.347C55.9375 203.347 55.4188 205.092 54.6586 205.715C53.6591 206.534 51.8001 206.853 50.5306 206.612C49.3338 206.387 47.7378 205.209 47.0297 204.218C46.2248 203.092 46.6604 200.769 46.6604 200.769Z" fill="white"/>
<path d="M38.5848 139.058C37.322 138.995 34.9219 140.424 34.9219 140.424C34.9219 140.424 37.0536 141.654 37.6518 142.45C38.887 144.094 39.3534 149.288 39.3534 149.288L40.2863 162.095L40.1168 171.424L38.3358 191.525L43.0852 192.034L44.6966 173.29V157.854L43.7637 146.659C43.7637 146.659 43.4144 142.665 42.4862 141.517C41.5194 140.322 40.1202 139.134 38.5848 139.058ZM42.184 142.792C42.335 142.8 42.4781 142.862 42.5866 142.968C42.6951 143.073 42.7616 143.214 42.7737 143.365C42.7868 143.529 42.734 143.692 42.6269 143.818C42.5198 143.944 42.3672 144.022 42.2025 144.035L39.4873 144.255C39.3228 144.268 39.1599 144.216 39.0342 144.109C38.9085 144.002 38.8302 143.85 38.8167 143.685C38.81 143.604 38.8195 143.522 38.8446 143.444C38.8697 143.366 38.9099 143.294 38.963 143.231C39.016 143.169 39.0809 143.117 39.1538 143.08C39.2267 143.043 39.3062 143.02 39.3879 143.014L42.1018 142.794C42.1291 142.791 42.1566 142.791 42.184 142.792ZM42.7922 146.333C42.957 146.323 43.1193 146.378 43.2433 146.487C43.3673 146.596 43.4429 146.75 43.4535 146.915C43.464 147.08 43.4088 147.242 43.3 147.366C43.1912 147.489 43.0377 147.565 42.8731 147.576L40.1551 147.755C39.9903 147.766 39.828 147.711 39.7037 147.602C39.5795 147.493 39.5035 147.34 39.4925 147.175C39.4871 147.093 39.498 147.011 39.5243 146.934C39.5507 146.856 39.5921 146.784 39.6461 146.723C39.7001 146.661 39.7657 146.611 39.8392 146.575C39.9127 146.539 39.9926 146.517 40.0743 146.512L42.7922 146.333ZM43.1315 149.641C43.2963 149.63 43.4586 149.686 43.5825 149.795C43.7065 149.904 43.7821 150.058 43.7928 150.223C43.8032 150.387 43.748 150.549 43.6392 150.673C43.5304 150.797 43.3769 150.873 43.2123 150.884L40.4944 151.063C40.3296 151.074 40.1672 151.019 40.043 150.91C39.9187 150.801 39.8427 150.647 39.8317 150.482C39.8264 150.401 39.8373 150.319 39.8636 150.241C39.8899 150.164 39.9313 150.092 39.9853 150.031C40.0393 149.969 40.105 149.919 40.1784 149.883C40.2519 149.846 40.3318 149.825 40.4135 149.82L43.1315 149.641ZM43.3435 153.457C43.5084 153.447 43.6706 153.502 43.7946 153.611C43.9185 153.721 43.9942 153.874 44.0048 154.039C44.0153 154.204 43.96 154.366 43.8512 154.49C43.7424 154.614 43.5889 154.689 43.4244 154.7L40.7065 154.879C40.5416 154.89 40.3792 154.835 40.255 154.726C40.1307 154.617 40.0548 154.464 40.0438 154.299C40.0385 154.217 40.0493 154.135 40.0756 154.058C40.102 153.98 40.1433 153.909 40.1974 153.847C40.2514 153.786 40.317 153.735 40.3905 153.699C40.464 153.663 40.5439 153.642 40.6256 153.636L43.3435 153.457ZM43.598 157.698C43.7628 157.688 43.925 157.743 44.049 157.852C44.173 157.961 44.2485 158.115 44.2592 158.28C44.2696 158.444 44.2144 158.606 44.1056 158.73C43.9968 158.854 43.8434 158.93 43.6788 158.941L40.9608 159.12C40.796 159.131 40.6336 159.076 40.5094 158.967C40.3852 158.858 40.3092 158.704 40.2983 158.54C40.2929 158.458 40.3037 158.376 40.33 158.298C40.3564 158.221 40.3978 158.149 40.4518 158.088C40.5058 158.026 40.5714 157.976 40.6449 157.94C40.7183 157.904 40.7982 157.882 40.88 157.877L43.598 157.698ZM43.81 161.515C43.9749 161.504 44.1371 161.559 44.2611 161.669C44.385 161.778 44.4606 161.931 44.4713 162.096C44.4817 162.261 44.4265 162.423 44.3177 162.547C44.2089 162.671 44.0555 162.747 43.8909 162.758L41.1729 162.937C41.0081 162.947 40.8457 162.892 40.7215 162.783C40.5972 162.675 40.5212 162.521 40.5103 162.356C40.5049 162.274 40.5158 162.192 40.5421 162.115C40.5685 162.037 40.6098 161.966 40.6638 161.904C40.7178 161.843 40.7835 161.792 40.8569 161.756C40.9304 161.72 41.0103 161.699 41.092 161.694L43.81 161.515ZM41.0868 166.102C41.1141 166.1 41.1415 166.1 41.1688 166.102L43.8881 166.264C43.9698 166.269 44.0497 166.29 44.1233 166.326C44.1969 166.361 44.2627 166.411 44.317 166.473C44.3713 166.534 44.413 166.605 44.4396 166.683C44.4663 166.76 44.4775 166.842 44.4725 166.924C44.4625 167.089 44.3876 167.243 44.2641 167.352C44.1406 167.462 43.9787 167.518 43.8139 167.508L41.0946 167.346C40.9298 167.336 40.7757 167.261 40.6661 167.138C40.5566 167.014 40.5005 166.853 40.5102 166.688C40.5188 166.537 40.5822 166.394 40.6882 166.286C40.7943 166.179 40.936 166.113 41.0868 166.102ZM40.9595 170.343C40.9869 170.341 41.0143 170.341 41.0416 170.343L43.7609 170.504C43.8426 170.509 43.9225 170.53 43.9961 170.566C44.0697 170.602 44.1356 170.652 44.1898 170.713C44.2441 170.775 44.2858 170.846 44.3125 170.923C44.3391 171.001 44.3503 171.083 44.3453 171.164C44.3354 171.329 44.2604 171.483 44.1369 171.593C44.0135 171.702 43.8515 171.759 43.6867 171.749L40.9674 171.587C40.8027 171.577 40.6485 171.502 40.539 171.379C40.4294 171.255 40.3733 171.093 40.383 170.928C40.3917 170.777 40.4549 170.635 40.561 170.527C40.667 170.419 40.8087 170.354 40.9595 170.343ZM40.8747 173.99C40.902 173.988 40.9294 173.988 40.9567 173.99L43.6761 174.152C43.7578 174.157 43.8377 174.178 43.9113 174.213C43.9849 174.249 44.0507 174.299 44.105 174.36C44.1593 174.422 44.2009 174.493 44.2276 174.571C44.2542 174.648 44.2654 174.73 44.2604 174.812C44.2504 174.976 44.1755 175.13 44.052 175.24C43.9285 175.35 43.7667 175.406 43.6019 175.396L40.8825 175.234C40.7177 175.224 40.5636 175.149 40.4541 175.026C40.3445 174.902 40.2885 174.741 40.2982 174.576C40.3068 174.425 40.3701 174.282 40.4761 174.174C40.5822 174.067 40.7239 174.001 40.8747 173.99ZM40.3659 178.697C40.3932 178.695 40.4206 178.695 40.4479 178.697L43.1671 178.859C43.2489 178.864 43.3288 178.885 43.4024 178.92C43.476 178.956 43.5418 179.006 43.5961 179.068C43.6504 179.129 43.692 179.2 43.7187 179.278C43.7454 179.355 43.7566 179.437 43.7516 179.519C43.7416 179.683 43.6667 179.838 43.5432 179.947C43.4197 180.057 43.2578 180.113 43.093 180.103L40.3737 179.941C40.2089 179.931 40.0548 179.856 39.9452 179.733C39.8357 179.609 39.7796 179.447 39.7893 179.283C39.7979 179.132 39.8612 178.989 39.9672 178.881C40.0733 178.773 40.2151 178.708 40.3659 178.697ZM39.9418 183.192C39.9691 183.19 39.9965 183.19 40.0238 183.192L42.7431 183.353C42.8249 183.358 42.9048 183.379 42.9784 183.415C43.052 183.451 43.1178 183.501 43.1721 183.562C43.2264 183.624 43.268 183.695 43.2946 183.772C43.3213 183.85 43.3325 183.932 43.3275 184.013C43.3175 184.178 43.2426 184.332 43.1191 184.442C42.9956 184.551 42.8337 184.608 42.6689 184.598L39.9496 184.436C39.7848 184.426 39.6307 184.351 39.5211 184.228C39.4116 184.104 39.3555 183.942 39.3652 183.778C39.3739 183.627 39.4372 183.484 39.5432 183.376C39.6493 183.269 39.791 183.203 39.9418 183.192ZM39.694 187.02C39.7209 187.019 39.748 187.019 39.7749 187.02L42.4928 187.203C42.6576 187.214 42.8112 187.291 42.9198 187.415C43.0284 187.54 43.0831 187.702 43.0719 187.867C43.0606 188.032 42.9843 188.186 42.8598 188.294C42.7353 188.403 42.5728 188.457 42.408 188.446L39.6914 188.263C39.6096 188.258 39.5298 188.236 39.4563 188.2C39.3829 188.164 39.3174 188.113 39.2635 188.052C39.2096 187.99 39.1683 187.918 39.1421 187.841C39.116 187.763 39.1054 187.681 39.1109 187.599C39.1213 187.449 39.1862 187.307 39.2935 187.2C39.4008 187.094 39.5431 187.03 39.694 187.02Z" fill="white"/>
<path d="M40.1141 147.132L42.8345 146.955L40.1141 147.132Z" fill="white"/>
<path d="M41.1315 166.723L43.8528 166.886L41.1315 166.723Z" fill="white"/>
<path d="M40.9194 174.611L43.6408 174.774L40.9194 174.611Z" fill="white"/>
<path d="M79.6864 14.0199L45.9772 26.5333L28.9604 51.9578L32.1614 79.6679L54.5549 67.6748L82.8769 58.433L113.968 58.4826L131.882 61.9582L129.816 49.7793L118.375 26.9623L114.34 23.6279L79.6864 14.0199ZM90.9603 22.2236C91.4296 22.234 91.8336 22.558 91.9463 23.0133L94.0828 31.6512C94.2204 32.2073 93.878 32.769 93.3217 32.9065C92.7655 33.0441 92.2039 32.7018 92.0664 32.1454L89.9299 23.5076C89.7923 22.9515 90.1347 22.3898 90.691 22.2523C90.7792 22.231 90.8695 22.221 90.9603 22.2236ZM74.6654 23.0395L84.854 27.0773L89.8488 37.6791L85.6255 43.1211L79.94 47.8181L70.0495 48.6994L63.9904 36.8448L65.8079 28.8399L74.6654 23.0395ZM74.0586 25.6311L72.8582 32.1846L66.3779 33.4006L71.3362 37.373L68.7838 43.6022L74.9425 41.0211L78.8705 46.0317L80.0708 39.4782L86.5512 38.2623L81.5928 34.2899L84.1453 28.0605L77.9866 30.6444L74.0586 25.6311ZM53.867 27.8984C53.9137 27.8994 53.9588 27.9033 54.003 27.9047C54.5719 27.9633 54.9867 28.4704 54.9314 29.0396L54.2201 36.1477C54.1613 36.7177 53.6528 37.1328 53.0826 37.076C52.5125 37.0172 52.0973 36.5087 52.1541 35.9385L52.8655 28.8331C52.9187 28.3149 53.3465 27.915 53.867 27.8984ZM109.664 31.4707L115.234 35.0352L118.461 45.2657L112.289 50.3547L106.371 50.8751L100.866 50.1403L97.7388 41.2331L101.301 33.1522L109.664 31.4707ZM107.028 33.9787L105.66 38.38L101.052 38.4087L104.183 41.7901L101.902 45.7965L106.395 44.7795L108.725 48.7545L110.09 44.3532L114.698 44.327L111.57 40.943L113.851 36.9392L109.355 37.9568L107.028 33.9787ZM119.165 34.7658C119.583 34.789 119.947 35.0611 120.088 35.4562L123.281 44.4523C123.471 44.9902 123.192 45.5805 122.656 45.7756C122.116 45.9725 121.518 45.6935 121.322 45.1531L118.129 36.1571C117.933 35.614 118.217 35.0151 118.762 34.8234C118.891 34.7768 119.028 34.7573 119.165 34.7658ZM41.8765 37.2528C42.0592 37.2625 42.235 37.3155 42.3893 37.4125C42.8726 37.7215 43.0148 38.3643 42.7039 38.8486L38.9171 44.7667C38.6076 45.2553 37.959 45.3975 37.4734 45.0828C36.9925 44.7727 36.852 44.1324 37.1596 43.6497L40.9542 37.729C41.1543 37.4178 41.5069 37.2368 41.8765 37.2528ZM51.2807 41.5391L57.6878 47.6114L58.2449 57.039L53.4539 59.8425L47.7948 61.6495L40.1349 59.3404L39.1569 48.6601L42.9175 43.2205L51.2807 41.5391ZM91.167 44.1149C91.7389 44.1114 92.2062 44.5708 92.213 45.1427L92.3333 53.5452C92.3427 54.1182 91.8864 54.5907 91.3134 54.6017C90.7373 54.6107 90.2636 54.1501 90.2569 53.574L90.1392 45.1715C90.1302 44.5954 90.5908 44.1216 91.167 44.1149ZM45.7888 44.9936L45.5064 49.5937L41.0346 50.7129L44.8762 53.2601L43.6104 57.6901L47.7371 55.6346L50.9406 58.9454L51.2258 54.3479L55.6951 53.2262L51.8534 50.6817L53.1192 46.2489L48.9924 48.3045L45.7888 44.9936ZM62.0551 47.6637C62.5791 47.6585 63.0253 48.044 63.0959 48.5633L64.0453 55.3025C64.1241 55.874 63.7277 56.4014 63.1563 56.4793C62.5892 56.5624 62.0625 56.1678 61.9794 55.6007L61.0299 48.8483C60.9514 48.2781 61.3488 47.7521 61.919 47.6742C61.9642 47.6677 62.0104 47.6675 62.0551 47.6637ZM120.498 52.0493C121.022 52.0318 121.477 52.4058 121.56 52.9228C121.648 53.4867 121.263 54.0155 120.7 54.1074L111.23 55.6504C110.663 55.7439 110.127 55.3581 110.035 54.79C109.942 54.2222 110.327 53.6867 110.896 53.5949L120.365 52.0623C120.41 52.0549 120.453 52.0481 120.498 52.0493ZM35.1347 61.2782C35.6171 61.2483 36.0702 61.5598 36.2017 62.0444L38.9293 72.1075C39.0769 72.662 38.751 73.2308 38.1971 73.3811C37.6403 73.5395 37.0633 73.2105 36.913 72.6514L34.1959 62.5883C34.0483 62.0339 34.3717 61.4624 34.9256 61.3121C34.9946 61.2935 35.065 61.2804 35.1347 61.2782Z" fill="white"/>
<path d="M79.6342 9.16344L42.5305 23.348L23.9969 52.941L28.0765 86.7889C19.0444 85.1877 19.0339 85.1779 28.0676 86.8217L28.1034 86.8196L28.108 86.8171L28.1993 86.8091L28.1392 86.8005L53.5925 72.6003L57.3949 71.3293L58.1036 68.6932L52.6693 70.5082L29.9332 83.1916L26.3531 53.4652L44.0577 25.198L79.7204 11.5679L116.808 22.8497L120.867 26.4115L133.402 52.3721L135.488 64.543L117.559 60.6569L101.954 60.8236L103.827 62.647L117.303 62.9295L137.472 66.4891L135.593 51.6686L122.719 25.0045L117.941 20.8151L79.6342 9.16344Z" fill="white"/>
<path d="M13.3149 97.0825L13.5563 122.203L13.3149 97.0825Z" fill="white"/>
<path d="M25.397 101.817L26.2511 121.032L25.397 101.817Z" fill="white"/>
<path d="M7.37799 120.007L7.89034 129.315L7.37799 120.007Z" fill="white"/>
<path d="M10.2816 143.235L11.0501 151.092L10.2816 143.235Z" fill="white"/>
<path d="M21.2125 149.213L23.8598 155.02L21.2125 149.213Z" fill="white"/>
<path d="M27.1904 141.613L29.9231 147.591L27.1904 141.613Z" fill="white"/>
<path d="M14.9783 161.852L18.7359 167.147L14.9783 161.852Z" fill="white"/>
<path d="M25.3116 165.951L30.7771 171.844L25.3116 165.951Z" fill="white"/>
<path d="M36.4133 165.097L40.1707 169.709L36.4133 165.097Z" fill="white"/>
<path d="M36.4133 152.458L40.5978 156.557L36.4133 152.458Z" fill="white"/>
<path d="M52.1265 154.935L55.884 157.497L52.1265 154.935Z" fill="white"/>
<path d="M49.7354 165.012L54.9446 166.122L49.7354 165.012Z" fill="white"/>
<path d="M43.843 176.284L48.8813 176.37L43.843 176.284Z" fill="white"/>
<path d="M61.0932 176.968L67.0712 177.138L61.0932 176.968Z" fill="white"/>
<path d="M63.5698 164.243L70.9995 164.841L63.5698 164.243Z" fill="white"/>
<path d="M69.2062 155.789L74.4156 158.778L69.2062 155.789Z" fill="white"/>
<path d="M80.8203 156.728L81.1619 159.888L80.8203 156.728Z" fill="white"/>
<path d="M79.0269 138.966L81.162 147.42L79.0269 138.966Z" fill="white"/>
<path d="M69.2062 137.941L71.4266 142.808L69.2062 137.941Z" fill="white"/>
<path d="M67.9251 120.263L69.1208 125.046L67.9251 120.263Z" fill="white"/>
<path d="M65.107 99.8533L66.2171 104.806L65.107 99.8533Z" fill="white"/>
<path d="M64.0822 85.5063L64.68 89.6054L64.0822 85.5063Z" fill="white"/>
<path d="M64.5092 55.7878L72.9636 102.159L64.5092 55.7878Z" fill="white"/>
<path d="M73.9029 65.3525L75.184 71.3304L73.9029 65.3525Z" fill="white"/>
<path d="M78.9415 57.752L79.6247 65.0108L78.9415 57.752Z" fill="white"/>
<path d="M70.9354 181.579L75.8883 180.384L70.9354 181.579Z" fill="white"/>
<path d="M208.975 205.788L209.696 185.664H215.068L216.03 237.057L189.251 238.661L184.12 206.029L208.975 205.788ZM208.253 213.485H193.18L194.623 231.525L208.494 230.002L208.253 213.485ZM223.998 239.302L220.711 205.548L251.419 204.586L251.179 226.394L230.493 225.913L230.413 232.728L246.689 233.289L247.09 237.138L223.998 239.302ZM230.974 220.3L243.882 219.739L242.519 211.16L231.375 210.839L230.974 220.3ZM279.238 181.976L317.161 200.978L315.157 224.871L281.643 241.948L279.238 181.976ZM287.736 195.766L291.104 228.639L306.498 218.136L307.38 206.51L287.736 195.766ZM352.189 205.708L348.982 239.302L324.047 238.42V238.34L320.599 205.708H352.189ZM345.294 213.806L327.655 212.603L330.701 231.926L342.488 233.449L345.294 213.806ZM388.883 207.953L408.526 206.029L406.121 238.661L399.386 238.42L399.546 213.966L388.161 216.612L386.718 238.661L380.705 238.42L380.464 213.966L368.838 217.013L369.64 238.1L364.108 238.661L358.576 204.505L367.636 203.223L367.956 207.392L388.802 204.666L388.883 207.953ZM459.104 238.26L446.436 208.274L444.432 238.741H439.782L434.73 185.904H447.96L462.151 219.499L468.325 186.866L480.913 185.904L485.563 236.737H479.309L473.616 203.142L467.202 237.218L459.104 238.26ZM525.583 232.407L525.823 232.487L525.422 237.539L520.692 237.378L492.95 238.1L492.63 216.211L512.834 217.574V210.92L498.964 211.481L498.563 206.029L518.687 202.26L521.894 230.964L525.583 232.407ZM512.834 223.588H499.284L500.407 232.247L512.273 232.648L512.834 223.588ZM558.456 206.35L560.941 236.897L531.436 239.302L533.922 204.425L539.374 204.746L540.095 231.766L552.202 230.403L552.603 206.67L558.456 206.35ZM573.155 239.784L567.463 204.024L577.565 202.982L577.806 205.949L595.284 205.227L596.006 211.16L578.287 214.768L579.57 239.142L573.155 239.784ZM609.294 207.392L608.893 239.383L600.956 239.062L604.724 206.991L609.294 207.392ZM611.699 188.871L617.713 195.205L608.412 203.944L606.648 200.176L611.699 188.871ZM648.756 236.657L623.42 240.505L618.85 204.024L648.115 206.269L647.874 211.882L627.189 212.283L630.075 232.487L648.275 231.365L648.756 236.657ZM662.611 206.51L662.05 239.383L653.952 239.062L657.48 206.43L662.611 206.51ZM663.734 202.341H657.159L656.758 194.644L664.375 195.125L663.734 202.341ZM702.495 205.708L699.288 239.302L674.353 238.42V238.34L670.905 205.708H702.495ZM695.6 213.806L677.961 212.603L681.008 231.926L692.794 233.449L695.6 213.806Z" fill="white"/>
<path d="M206.699 111.6V119.066L179.321 123.03L181.81 160.917L195.545 159.627L200.154 146.26L188.355 144.324L187.341 137.871H210.386L205.409 170.135L170.656 171.426L164.48 110.678L206.699 111.6ZM227.226 172.716L220.681 131.603L232.296 130.405L232.573 133.815L252.669 132.986L253.498 139.807L233.126 143.956L234.601 171.979L227.226 172.716ZM290.715 134.276L293.573 169.398L259.65 172.163L262.508 132.064L268.776 132.433L269.606 163.498L283.525 161.931L283.986 134.645L290.715 134.276ZM308.814 170.504L308.445 193.642L302.269 193.734L300.149 134.737L338.681 134.092L332.413 169.859L308.814 170.504ZM309.552 161.655L324.393 162.023L328.818 143.679L308.998 144.693L309.552 161.655ZM382.864 133.539L379.177 172.163L350.508 171.149V171.057L346.544 133.539H382.864ZM374.936 142.849L354.656 141.467L358.159 163.683L371.71 165.434L374.936 142.849ZM451.002 114.457L449.712 122.477L424.362 123.86L428.141 159.719L450.081 159.35V166.817L419.66 171.334L412.931 110.77L451.002 114.457ZM490.834 134.276L493.691 169.398L459.768 172.163L462.626 132.064L468.894 132.433L469.724 163.498L483.644 161.931L484.105 134.645L490.834 134.276ZM506.72 113.167L511.053 170.873L501.558 171.702L500.82 113.628L506.72 113.167ZM530.45 170.873L528.698 136.857L519.665 137.503L519.111 128.469H527.777L526.67 112.245L537.087 112.89V128.192L549.624 129.114L549.808 134.092L537.271 136.304L537.548 170.781L530.45 170.873ZM585.537 134.276L588.394 169.398L554.471 172.163L557.329 132.064L563.597 132.433L564.427 163.498L578.347 161.931L578.807 134.645L585.537 134.276ZM602.437 172.716L595.892 131.603L607.507 130.405L607.784 133.815L627.879 132.986L628.709 139.807L608.337 143.956L609.812 171.979L602.437 172.716ZM671.611 164.236L671.888 164.328L671.427 170.135L665.988 169.951L634.093 170.781L633.724 145.615L656.954 147.182V139.531L641.007 140.176L640.546 133.908L663.684 129.575L667.371 162.576L671.611 164.236ZM656.954 154.096H641.375L642.666 164.051L656.309 164.512L656.954 154.096ZM683.973 113.167L688.306 170.873L678.811 171.702L678.073 113.628L683.973 113.167Z" fill="white"/>
<path d="M35.1996 62.3152L37.9216 72.3747L35.1996 62.3152Z" fill="white"/>
<path d="M62.0648 48.7053L63.0115 55.4512L62.0648 48.7053Z" fill="white"/>
<path d="M53.8988 28.9412L53.1887 36.0421L53.8988 28.9412Z" fill="white"/>
<path d="M41.8273 38.2908L38.0402 44.2081L41.8273 38.2908Z" fill="white"/>
<path d="M90.9416 23.2605L93.0719 31.8999L90.9416 23.2605Z" fill="white"/>
<path d="M91.1784 45.1548L91.2962 53.5575L91.1784 45.1548Z" fill="white"/>
<path d="M111.061 54.6227L120.529 53.0842L111.061 54.6227Z" fill="white"/>
<path d="M119.109 35.8054L122.304 44.7998L119.109 35.8054Z" fill="white"/>
<path d="M40.4532 150.44L43.1737 150.262L40.4532 150.44Z" fill="white"/>
<path d="M40.6654 154.256L43.3858 154.079L40.6654 154.256Z" fill="white"/>
<path d="M40.9197 158.497L43.6402 158.32L40.9197 158.497Z" fill="white"/>
<path d="M41.1318 162.314L43.8522 162.136L41.1318 162.314Z" fill="white"/>
<path d="M41.0043 170.964L43.7256 171.127L41.0043 170.964Z" fill="white"/>
<path d="M39.9865 183.813L42.7078 183.976L39.9865 183.813Z" fill="white"/>
</svg>
